<svg xmlns="http://www.w3.org/2000/svg">
<defs>
<font id="utmaltergothic" horiz-adv-x="678" ><font-face
    font-family="UTM Alter Gothic"
    units-per-em="2048"
    panose-1="2 4 6 3 5 5 6 2 2 4"
    ascent="2045"
    descent="-512"
    alphabetic="0" />
<missing-glyph horiz-adv-x="5040" d="M3351 2045H3361Q3398 2035 3398 1993Q3398 1981 3366 1936H3338Q3338 1960 3366 1990L3368 2000Q3363 2013 3358 2015H3349Q3341 2015 3339 1996H3309Q3315 2045 3351 2045ZM2019 2016L2048 1985Q2048 1969 2008 1955H1989L1930
1967L1919 1955L1891 1980Q1902 2009 1934 2009H1945L1987 1998H1989Q1999 1998 2019 2016ZM468 1980H610V1920H516V1845H605V1786H516V1657L511 1652H462V1975L468 1980ZM1155 1980H1198L1204 1975V1897H1234V1845H1204V1657L1198 1652H1149V1845H1124V1897H1149V1975L1155
1980ZM1621 1980H1663L1667 1975V1881H1670Q1693 1905 1724 1905H1726Q1784 1905 1809 1834L1811 1795V1652H1759V1767Q1759 1847 1717 1847H1710Q1667 1847 1667 1761V1652H1616V1975L1621 1980ZM2200 1980H2249L2254 1975V1753Q2264 1702 2299 1702Q2343 1709
2343 1761V1975L2348 1980H2397V1764Q2397 1679 2331 1652Q2316 1644 2296 1644Q2249 1644 2214 1699Q2200 1723 2200 1756V1980ZM2435 1980H2594V1920H2538V1652H2485V1920H2430V1975L2435 1980ZM2621 1980H2692Q2699 1976 2775 1729H2777L2857 1980H2930V1652H2876V1894H2874L2800
1652H2756Q2752 1652 2698 1834L2679 1894H2676V1652H2621V1980ZM3760 1980H3812V1652H3767L3762 1657V1668L3765 1670L3762 1684Q3733 1644 3684 1644Q3617 1644 3584 1735L3579 1774V1777Q3579 1871 3671 1902L3694 1905Q3729 1905 3757 1873H3760V1980ZM2057
1928H2093L2097 1922V1873H2052V1652H2004V1675Q1981 1644 1945 1644Q1856 1658 1856 1741V1897H1907V1793Q1907 1714 1933 1707L1951 1702H1957Q1983 1702 1996 1738L1999 1764V1897H2052V1922L2057 1928ZM3476 1928V1873H3445V1652H3398V1677H3396Q3381 1644
3339 1644Q3271 1644 3253 1722L3250 1751V1897H3302V1777Q3302 1727 3321 1709L3342 1702H3351Q3393 1702 3393 1771V1897H3420Q3424 1897 3424 1925L3427 1928H3476ZM758 1905Q826 1905 861 1828Q870 1810 873 1774Q873 1686 783 1647L751 1644Q688 1644 650

<glyph unicode=" " glyph-name="space" horiz-adv-x="512" />
<glyph unicode="!" glyph-name="exclam" horiz-adv-x="444" d="M284 412H157L108 1366H333L284 412ZM122 0V219H321V0H122Z" />
<glyph unicode="&quot;" glyph-name="quotedbl" horiz-adv-x="724" d="M589 817H454L419 1366H624L589 817ZM270 817H135L100 1366H305L270 817Z" />
<glyph unicode="#" glyph-name="numbersign" horiz-adv-x="1228" d="M1173 817H956L919 575H1138L1114 408H893L829 0H641L704 408H461L395 0H209L272 408H51L76 575H299L336 817H114L139 985H360L420 1366H608L549 985H792L852 1366H1042L983 985H1200L1173 817ZM522
817L485 575H731L768 817H522Z" />
<glyph unicode="$" glyph-name="dollar" horiz-adv-x="839" d="M776 342Q776 195 699 98T473 -18V-174H362V-16Q258 -2 188 49T55 178L198 309Q223 281 246 255T296 210T355 179T428 168Q499 168 535 215T571 330Q571 401 534 452T442 548T323 635T203 732T110
857T73 1028Q73 1096 92 1155T149 1261T240 1340T362 1382V1509H473V1382Q563 1370 626 1333T749 1231L608 1094Q571 1141 527 1169T422 1198Q350 1198 311 1155T272 1042Q272 963 325 903Q360 866 404 838T489 780Q551 737 604 694T695 600T754 487T776 342Z"
/>
<glyph unicode="%" glyph-name="percent" horiz-adv-x="1099" d="M438 887Q438 838 429 795T398 719T341 667T249 647Q194 647 157 666T99 719T69 795T61 887V1141Q61 1190 69 1233T98 1308T157 1359T249 1378Q305 1378 340 1360T397 1309T428 1233T438 1141V887ZM323
0H211L776 1366H888L323 0ZM1038 225Q1038 176 1030 132T1001 57T942 6T849 -14Q794 -14 757 5T699 57T669 133T661 225V479Q661 528 669 571T698 647T757 698T849 717Q905 717 940 699T997 647T1028 571T1038 479V225ZM317 1161Q317 1202 308 1236T249 1270Q225
1270 212 1260T192 1234T185 1200T184 1161V864Q184 825 193 792T249 758Q299 758 308 790T317 864V1161ZM915 500Q915 518 914 537T907 572T888 598T849 608Q800 608 791 575T782 500V203Q782 162 791 129T849 96Q897 96 906 130T915 203V500Z" />
<glyph unicode="&amp;" glyph-name="ampersand" horiz-adv-x="960" d="M905 -20Q827 -12 765 23T647 115Q587 57 527 22T380 -14Q311 -14 254 13T154 87T90 193T67 322Q67 379 82 431T123 532T183 627T251 713Q210 791 186 871T161 1040Q161 1104 178 1164T232
1273T320 1349T444 1378Q503 1378 550 1356T631 1295T682 1207T700 1100Q700 1036 680 981T627 876T556 779T479 688Q509 616 548 549T634 422Q665 479 675 524T692 633L874 610Q866 512 843 432T765 270Q792 236 828 216T905 184V-20ZM507 1133Q507 1171 491 1210T427
1249Q399 1249 382 1234T355 1197T342 1147T337 1100Q337 1038 352 980T393 866Q440 924 473 989T507 1133ZM526 256Q468 317 423 386T341 530Q313 487 295 444T276 348Q276 322 284 294T307 243T345 204T399 188Q440 188 469 207T526 256Z" />
<glyph unicode="&apos;" glyph-name="quotesingle" horiz-adv-x="405" d="M270 817H135L100 1366H305L270 817Z" />
<glyph unicode="(" glyph-name="parenleft" horiz-adv-x="544" d="M364 -250Q229 -70 148 146T67 590Q67 817 148 1033T364 1430L483 1348Q374 1178 317 985T260 590Q260 389 317 196T483 -168L364 -250Z" />
<glyph unicode=")" glyph-name="parenright" horiz-adv-x="544" d="M477 590Q477 362 396 146T180 -250L61 -168Q170 2 227 195T284 590Q284 791 227 984T61 1348L180 1430Q315 1249 396 1033T477 590Z" />
<glyph unicode="*" glyph-name="asterisk" horiz-adv-x="626" d="M415 1106L507 999L384 911L313 1030L241 911L118 999L210 1106L75 1137L120 1280L251 1225L237 1366H388L376 1225L505 1280L552 1137L415 1106Z" />
<glyph unicode="+" glyph-name="plus" horiz-adv-x="1024" d="M604 600V262H419V600H67V772H419V1110H604V772H956V600H604Z" />
<glyph unicode="," glyph-name="comma" horiz-adv-x="354" d="M157 -283H77L169 0H77V219H276V0L157 -283Z" />
<glyph unicode="-" glyph-name="hyphen" horiz-adv-x="292" d="M0 434V604H293V434H0Z" />
<glyph unicode="." glyph-name="period" horiz-adv-x="354" d="M77 0V219H276V0H77Z" />
<glyph unicode="/" glyph-name="slash" horiz-adv-x="759" d="M206 -137H34L540 1366H712L206 -137Z" />
<glyph unicode="0" glyph-name="zero" horiz-adv-x="839" d="M763 434Q763 346 749 264T697 119T591 18T419 -20Q335 -20 267 10T149 111Q102 178 90 266T77 434V932Q77 1018 91 1100T144 1245T249 1347T419 1386Q505 1386 573 1356T691 1253Q739 1186 751 1099T763
932V434ZM564 973Q564 1012 561 1053T545 1125T502 1177T419 1198Q370 1198 342 1180T298 1133T278 1067T274 991V373Q274 334 278 297T297 232T341 186T419 168Q470 168 500 187T544 239T561 311T564 391V973Z" />
<glyph unicode="1" glyph-name="one" horiz-adv-x="839" d="M364 0V1044H167V1169Q245 1204 317 1252T446 1366H562V0H364Z" />
<glyph unicode="2" glyph-name="two" horiz-adv-x="839" d="M759 1024Q759 946 740 876T688 739T613 611T526 489Q468 412 411 337T296 184H731V0H67V184Q169 317 280 462T475 752Q513 817 533 882T554 1026Q554 1059 548 1089T527 1144T486 1183T421 1198Q372
1198 344 1177T301 1121T282 1047T278 969H79V1010Q79 1094 100 1163T165 1282T273 1358T427 1386Q509 1386 571 1359T676 1283T738 1169T759 1024Z" />
<glyph unicode="3" glyph-name="three" horiz-adv-x="839" d="M761 399Q761 313 742 237T681 104T573 14T411 -20Q327 -20 263 8T155 87T91 205T69 354V389H274Q274 352 278 313T296 242T339 189T415 168Q460 168 489 190T532 247T551 320T556 397Q556 453 548
495T519 564T459 606T362 623V813Q466 815 504 858T542 1006Q542 1038 538 1072T520 1133T481 1179T415 1198Q380 1198 353 1182T309 1139T286 1081T286 1016H87V1042Q87 1118 111 1180T179 1289T284 1360T421 1386Q507 1386 567 1357T666 1276T721 1155T739 1008Q739
903 708 832T575 721Q636 702 673 672T729 600T755 508T761 399Z" />
<glyph unicode="4" glyph-name="four" horiz-adv-x="839" d="M649 346V0H450V346H28V559L434 1366H649V530H802V346H649ZM450 1032L212 530H450V1032Z" />
<glyph unicode="5" glyph-name="five" horiz-adv-x="839" d="M760 471Q760 377 749 289T701 132T597 22T414 -20Q328 -20 267 7T167 83T111 198T92 346V385H291Q289 377 289 369T289 352Q289 317 293 285T310 226T349 184T416 168Q475 168 504 202T545 284T556
385T555 479Q555 518 554 570T541 671T500 752T416 786Q360 786 331 755T276 678H96L108 1366H706V1182H282L276 870Q323 911 371 932T483 954Q586 954 642 907T723 789T754 632T760 471Z" />
<glyph unicode="6" glyph-name="six" horiz-adv-x="839" d="M765 432Q765 346 750 264T695 119T590 18T423 -20Q316 -20 250 20T147 129T97 283T83 459V946Q83 1030 96 1114T163 1268Q210 1329 277 1357T423 1386Q579 1386 663 1291T747 1044V1012H548Q548 1047
545 1080T530 1139T492 1181T421 1198Q364 1198 334 1168T292 1093T280 998T280 907V739Q321 795 368 821T486 848Q577 848 631 810T715 713T755 580T765 432ZM560 420Q560 457 557 500T541 577T500 635T423 659Q374 659 341 635T280 575V387Q280 350 285 311T304
241T346 189T421 168Q472 168 500 192T542 255T558 337T560 420Z" />
<glyph unicode="7" glyph-name="seven" horiz-adv-x="839" d="M427 0H218L521 1182H77V1366H732V1219L427 0Z" />
<glyph unicode="8" glyph-name="eight" horiz-adv-x="839" d="M765 385Q765 299 747 225T687 96T580 11T419 -20Q345 -20 280 3T163 82Q104 145 89 226T73 391Q73 444 79 493T102 586T153 662T239 719Q190 741 160 772T115 842T95 925T89 1020Q89 1102 108 1169T168
1285T270 1359T419 1386Q505 1386 567 1360T670 1285T729 1170T749 1020Q749 969 744 925T724 842T678 772T599 719Q655 696 687 662T737 584T760 490T765 385ZM550 1006Q550 1038 545 1073T526 1135T486 1180T419 1198Q378 1198 353 1181T313 1136T293 1073T288
1006Q288 971 293 937T312 875T352 829T419 811Q460 811 485 828T525 874T545 937T550 1006ZM560 393Q560 430 556 470T537 541T494 594T419 616Q372 616 345 595T302 542T282 470T278 393Q278 356 282 316T301 244T344 190T419 168Q466 168 494 189T537 243T556
316T560 393Z" />
<glyph unicode="9" glyph-name="nine" horiz-adv-x="839" d="M757 420Q757 334 744 251T675 98Q628 37 561 9T415 -20Q337 -20 278 5T176 76T113 184T91 322V354H290Q290 317 293 285T308 226T346 184T417 168Q474 168 503 197T544 272T557 366T558 457V627Q517
571 470 545T351 518Q261 518 207 556T123 653T84 786T75 934Q75 1020 90 1102T145 1246T249 1347T415 1386Q521 1386 588 1345T692 1235T743 1081T757 907V420ZM558 977Q558 1014 554 1053T535 1124T492 1177T417 1198Q366 1198 339 1173T298 1109T282 1026T280
944Q280 907 283 865T298 788T338 730T415 707Q464 707 497 729T558 791V977Z" />
<glyph unicode=":" glyph-name="colon" horiz-adv-x="354" d="M77 799V1018H276V799H77ZM77 0V219H276V0H77Z" />
<glyph unicode=";" glyph-name="semicolon" horiz-adv-x="354" d="M77 799V1018H276V799H77ZM157 -283H77L169 0H77V219H276V0L157 -283Z" />
<glyph unicode="&lt;" glyph-name="less" horiz-adv-x="1024" d="M67 600V758L956 1184V1001L264 678L954 354L956 172L67 600Z" />
<glyph unicode="=" glyph-name="equal" horiz-adv-x="1024" d="M67 780V942H956V780H67ZM67 455V616H956V455H67Z" />
<glyph unicode="&gt;" glyph-name="greater" horiz-adv-x="1024" d="M67 172V356L759 678L69 1001L67 1184L956 758V600L67 172Z" />
<glyph unicode="?" glyph-name="question" horiz-adv-x="727" d="M671 1114Q671 1038 641 981T570 862Q532 803 506 761T466 678T447 589T441 469V416H269Q267 444 266 474T265 535Q265 602 275 656T304 760T348 857T407 965Q427 999 445 1037T464 1116Q464 1157
440 1180T374 1204Q341 1204 319 1189T279 1149T250 1096T230 1042L40 1098Q81 1231 160 1304T384 1378Q443 1378 495 1361T587 1310T648 1227T671 1114ZM259 0V219H458V0H259Z" />
<glyph unicode="@" glyph-name="at" horiz-adv-x="964" d="M749 362L724 418Q690 379 657 361T571 342Q485 342 446 384T407 512V897Q407 983 452 1033T585 1083Q626 1083 651 1072T708 1032V1075Q708 1118 689 1149T639 1199T570 1227T495 1235Q452 1235 411
1224T335 1184Q292 1149 284 1108T276 1014V377Q276 334 282 291T315 213Q350 168 402 149T507 129Q620 129 708 195L811 100Q749 35 672 8T505 -20Q421 -20 348 1T221 66T137 175T106 332V1044Q106 1135 134 1199T215 1306T338 1367T493 1386Q573 1386 642 1367T764
1308T847 1206T878 1057V362H749ZM708 868Q708 907 697 926T643 946Q602 946 591 926T579 868V559Q579 520 591 501T645 481Q686 481 697 501T708 559V868Z" />
<glyph unicode="A" glyph-name="A" horiz-adv-x="923" d="M665 0L608 297H315L262 0H55L317 1366H606L882 0H665ZM458 1104L350 492H571L458 1104Z" />
<glyph unicode="B" glyph-name="B" horiz-adv-x="933" d="M852 387Q852 199 741 100T446 0H104V1366H419Q505 1366 578 1347T704 1284T788 1176T819 1018Q819 897 764 824T593 715Q641 700 679 686T755 637Q809 590 830 525T852 387ZM604 1001Q604 1098 544 1134T395
1171H315V809H391Q481 809 542 858T604 1001ZM632 387Q632 496 564 555T391 614H315V195H421Q516 195 574 242T632 387Z" />
<glyph unicode="C" glyph-name="C" horiz-adv-x="909" d="M835 434Q835 338 817 255T755 111T639 15T461 -20Q364 -20 287 14T156 131Q129 170 116 215T96 308T90 403T90 498V881Q90 932 91 981T99 1078T122 1171T170 1260Q221 1327 299 1356T459 1386Q555 1386
625 1354T741 1265T807 1131T829 963V922H618Q618 965 614 1011T594 1097T546 1162T459 1188Q401 1188 370 1163T323 1098T304 1013T301 924V469Q301 426 303 375T320 281T368 208T461 178Q520 178 554 209T603 285T621 383T625 479H835V434V434Z" />
<glyph unicode="D" glyph-name="D" horiz-adv-x="921" d="M831 426Q831 223 740 112T438 0H104V1366H438Q651 1366 741 1255T831 938V426ZM620 881Q620 938 614 991T588 1084T527 1147T417 1171H315V195H417Q487 195 528 218T589 282T615 374T620 485V881Z" />
<glyph unicode="E" glyph-name="E" horiz-adv-x="763" d="M104 0V1366H722V1171H315V811H616V616H315V195H722V0H104Z" />
<glyph unicode="F" glyph-name="F" horiz-adv-x="751" d="M315 1171V803H620V608H315V0H104V1366H729V1171H315Z" />
<glyph unicode="G" glyph-name="G" horiz-adv-x="917" d="M727 0L688 117Q637 47 579 14T432 -20Q342 -20 267 19T149 139Q104 223 97 317T90 504V881Q90 932 91 981T99 1078T122 1171T170 1260Q221 1327 299 1356T459 1386Q555 1386 625 1354T741 1265T807 1131T829
963V922H618Q618 965 614 1011T594 1097T546 1162T459 1188Q401 1188 370 1163T323 1098T304 1012T301 922V504Q301 459 303 403T320 296T369 212T467 178Q530 178 563 212T609 296T623 402T625 504H450V678H835V0H727Z" />
<glyph unicode="H" glyph-name="H" horiz-adv-x="929" d="M614 0V602H315V0H104V1366H315V797H614V1366H827V0H614Z" />
<glyph unicode="I" glyph-name="I" horiz-adv-x="419" d="M104 0V1366H315V0H104Z" />
<glyph unicode="J" glyph-name="J" horiz-adv-x="530" d="M425 334Q425 256 416 194T379 88T296 23T153 0H26V199Q73 199 108 202T166 218T202 262T214 348V1366H425V334V334Z" />
<glyph unicode="K" glyph-name="K" horiz-adv-x="909" d="M657 0L428 643L315 453V0H104V1366H315V799L620 1366H847L559 868L888 0H657Z" />
<glyph unicode="L" glyph-name="L" horiz-adv-x="761" d="M104 0V1366H315V195H735V0H104Z" />
<glyph unicode="M" glyph-name="M" horiz-adv-x="1202" d="M897 0V1004L657 0H540L305 1004V0H104V1366H413L602 508L792 1366H1097V0H897Z" />
<glyph unicode="N" glyph-name="N" horiz-adv-x="964" d="M671 0L305 909V0H104V1366H317L659 516V1366H860V0H671Z" />
<glyph unicode="O" glyph-name="O" horiz-adv-x="925" d="M835 434Q835 346 823 265T758 111Q706 39 628 10T463 -20Q377 -20 299 9T168 111Q115 180 103 265T90 434V932Q90 1018 103 1100T168 1253Q219 1325 298 1355T463 1386Q551 1386 627 1356T758 1253Q811
1184 823 1100T835 932V434ZM625 928Q625 975 623 1023T598 1114Q577 1151 541 1169T463 1188Q403 1188 371 1165T323 1103T304 1019T301 928V438Q301 393 304 347T322 263T370 202T463 178Q522 178 555 201T603 263T621 347T625 438V928Z" />
<glyph unicode="P" glyph-name="P" horiz-adv-x="890" d="M849 952Q849 866 827 784T741 641Q682 584 607 569T454 553H315V0H104V1366H454Q667 1366 758 1264T849 952ZM630 967Q630 1090 578 1130T407 1171H315V748H407Q534 748 582 794T630 967Z" />
<glyph unicode="Q" glyph-name="Q" horiz-adv-x="925" d="M897 -100Q819 -100 753 -76T639 14Q612 4 592 -3T551 -14T508 -19T459 -20Q373 -20 297 10T168 111Q115 180 103 265T90 434V932Q90 1018 103 1100T168 1253Q221 1325 299 1355T463 1386Q551 1386 627
1356T758 1253Q811 1184 823 1100T835 932V434Q835 362 827 290T784 154Q805 123 833 112T897 96V-100ZM625 928Q625 975 623 1023T598 1114Q577 1151 541 1169T463 1188Q403 1188 371 1165T323 1103T304 1019T301 928V438Q301 393 304 347T322 263T370 202T463
178Q522 178 555 201T603 263T621 347T625 438V928Z" />
<glyph unicode="R" glyph-name="R" horiz-adv-x="899" d="M622 0L442 561H315V0H104V1366H434Q626 1366 726 1267T827 975Q827 864 786 768T643 618L843 0H622ZM608 963Q608 1008 598 1050T557 1126Q526 1159 481 1165T393 1171H315V756H393Q510 756 559 799T608 963Z" />
<glyph unicode="S" glyph-name="S" horiz-adv-x="872" d="M828 328Q828 246 800 182T720 72T602 4T454 -20Q265 -20 167 83T40 365L243 424Q249 379 263 335T302 256T363 200T454 178Q525 178 567 220T609 334Q609 397 571 449T473 551T346 648T219 754T120 884T81
1049Q81 1126 108 1188T184 1295T297 1362T437 1386Q519 1386 581 1361T691 1289T770 1181T820 1044L618 985Q609 1018 595 1055T560 1120T508 1168T437 1188Q378 1188 339 1148T300 1049Q300 987 339 936T437 838T564 742T691 633T789 499T828 328Z" />
<glyph unicode="T" glyph-name="T" horiz-adv-x="768" d="M489 1171V0H278V1171H14V1366H755V1171H489Z" />
<glyph unicode="U" glyph-name="U" horiz-adv-x="929" d="M825 440Q825 350 814 263T747 102Q698 37 621 9T464 -20Q380 -20 308 8T182 102Q127 174 116 264T104 440V1366H315V406Q315 365 319 324T338 250T383 198T464 178Q516 178 545 197T590 250T610 324T614
406V1366H825V440V440Z" />
<glyph unicode="V" glyph-name="V" horiz-adv-x="886" d="M589 0H327L34 1366H251L458 328L638 1366H851L589 0Z" />
<glyph unicode="W" glyph-name="W" horiz-adv-x="1304" d="M1031 0H835L658 926L493 0H296L40 1366H245L400 485L564 1366H747L927 485L1064 1366H1263L1031 0Z" />
<glyph unicode="X" glyph-name="X" horiz-adv-x="921" d="M659 0L452 496L257 0H26L331 713L38 1366H272L454 928L624 1366H855L575 713L892 0H659Z" />
<glyph unicode="Y" glyph-name="Y" horiz-adv-x="901" d="M552 532V0H339V532L34 1366H265L448 788L638 1366H868L552 532Z" />
<glyph unicode="Z" glyph-name="Z" horiz-adv-x="796" d="M40 0V199L517 1171H85V1366H749V1171L273 195H755V0H40Z" />
<glyph unicode="[" glyph-name="bracketleft" horiz-adv-x="526" d="M96 -195V1366H450V1188H289V-16H450V-195H96Z" />
<glyph unicode="\" glyph-name="backslash" horiz-adv-x="1024" d="M751 -170L53 1536H233L932 -170H751Z" />
<glyph unicode="]" glyph-name="bracketright" horiz-adv-x="526" d="M75 -195V-16H235V1188H75V1366H429V-195H75Z" />
<glyph unicode="^" glyph-name="asciicircum" horiz-adv-x="1024" d="M788 729L511 1225L235 729H38L390 1370H632L984 729H788Z" />
<glyph unicode="_" glyph-name="underscore" horiz-adv-x="1024" d="M0 -289V-125H1024V-289H0Z" />
<glyph unicode="`" glyph-name="grave" horiz-adv-x="1024" d="M452 1184L305 1366H504L596 1184H452Z" />
<glyph unicode="a" glyph-name="a" horiz-adv-x="811" d="M528 0Q517 29 514 58T511 119Q462 66 410 26T280 -14Q222 -14 184 9T120 72T85 159T75 256Q75 324 94 378T163 479Q233 545 329 587T511 666V719Q511 745 508 772T495 819T465 852T411 864Q345 864 323
820T298 719H95Q108 872 196 951T437 1030Q497 1030 551 1015T646 952Q689 905 695 847T702 729V276Q702 207 704 138T724 0H528ZM511 524Q474 506 433 482T358 425T300 354T276 268Q276 225 300 190T372 154Q419 154 454 181T511 246V524Z" />
<glyph unicode="b" glyph-name="b" horiz-adv-x="792" d="M711 387Q711 332 707 263T683 132T622 28T504 -14Q436 -14 382 20T281 100V0H88V1366H281V915Q328 961 382 995T504 1030Q580 1030 621 988T683 885T707 755T711 631V387ZM518 659Q518 690 517 726T507
792T477 843T412 864Q375 864 342 849T281 813V205Q311 182 343 168T414 154Q455 154 476 175T507 227T517 294T518 358V659Z" />
<glyph unicode="c" glyph-name="c" horiz-adv-x="772" d="M714 324Q714 256 703 192T644 74Q597 20 533 0T400 -20Q327 -20 260 3T144 86Q99 143 90 217T81 360V655Q81 729 90 799T144 932Q190 991 260 1014T403 1038Q470 1038 533 1018T644 946Q697 889 705 814T714
666H523Q523 700 521 735T507 798T471 845T400 864Q351 864 325 842T286 785T273 709T271 631V385Q271 348 272 308T286 234T324 177T400 154Q446 154 470 173T507 222T521 289T523 360H714V324V324Z" />
<glyph unicode="d" glyph-name="d" horiz-adv-x="792" d="M511 0V100Q464 55 409 21T286 -14Q208 -14 167 28T107 131T84 262T81 387V631Q81 686 84 754T105 884T166 988T286 1030Q353 1030 408 996T511 915V1366H702V0H511ZM511 813Q482 834 449 849T378 864Q335
864 313 841T281 784T271 711T271 643V358Q271 330 272 294T284 228T315 176T378 154Q417 154 448 168T511 205V813Z" />
<glyph unicode="e" glyph-name="e" horiz-adv-x="796" d="M714 315Q714 248 703 187T644 72Q597 18 533 -1T400 -20Q304 -20 243 7T146 85T96 204T81 360V666Q81 745 92 820T163 954Q210 999 270 1018T394 1038Q464 1038 525 1017T634 944Q663 913 678 878T701
804T711 725T712 645V477H271V385Q271 348 272 307T286 233T324 177T403 154Q446 154 470 172T507 219T521 282T523 352H714V315ZM521 700Q521 735 517 766T499 820T460 857T394 870Q355 870 331 856T293 819T276 764T271 700V645H521V700Z" />
<glyph unicode="f" glyph-name="f" horiz-adv-x="501" d="M516 1188Q493 1194 474 1199T432 1204Q391 1204 372 1186T346 1140T341 1080T342 1018H499V846H342V0H149V846H12V1018H149Q149 1094 150 1159T172 1274T243 1350T389 1378Q450 1378 516 1366V1188V1188Z" />
<glyph unicode="g" glyph-name="g" horiz-adv-x="827" d="M815 825Q788 850 749 850Q723 850 708 842T676 811Q696 731 696 645Q696 567 681 497T631 372T537 285T389 252Q371 252 353 254T315 260Q299 250 285 237T270 201Q270 168 310 158T409 145T537 138T665
110T765 35T805 -111Q805 -195 766 -245T668 -321T537 -355T399 -362Q352 -362 292 -357T177 -334T85 -279T47 -178Q47 -141 60 -115T96 -69T147 -35T207 -10Q158 10 123 36T88 123Q88 197 136 229T246 281Q192 309 160 348T109 433T83 532T76 641Q76 721 91 791T143
915T239 999T389 1030Q475 1030 532 1002T637 901Q661 975 699 1001T815 1028V825ZM502 698Q502 729 498 758T480 812T445 850T385 864Q348 864 326 850T291 812T274 759T270 698V586Q270 555 274 526T290 473T325 435T385 420Q422 420 444 434T480 472T497 525T502
586V698ZM625 -115Q625 -86 607 -71T561 -48T506 -40T457 -39L393 -37Q369 -35 343 -33T293 -29Q272 -45 257 -67T242 -117Q242 -150 263 -167T314 -191T375 -200T430 -201Q450 -201 484 -200T548 -191T602 -165T625 -115Z" />
<glyph unicode="h" glyph-name="h" horiz-adv-x="788" d="M508 0V745Q508 766 507 786T499 824T476 853T434 864Q387 864 347 831T281 762V0H88V1366H281V887Q332 946 391 988T532 1030Q584 1030 616 1010T667 957T692 881T698 795V0H508Z" />
<glyph unicode="i" glyph-name="i" horiz-adv-x="368" d="M88 1167V1366H281V1167H88ZM88 0V1018H281V0H88Z" />
<glyph unicode="j" glyph-name="j" horiz-adv-x="395" d="M117 1167V1366H307V1167H117ZM307 -14Q307 -80 301 -141T250 -256Q209 -303 151 -322T31 -342Q8 -342 -10 -339T-49 -332V-147Q-33 -150 -20 -152T10 -154Q49 -154 70 -137T102 -94T115 -36T117 27V1018H307V-14Z"
/>
<glyph unicode="k" glyph-name="k" horiz-adv-x="765" d="M530 0L389 475L281 303V0H88V1366H281V610L510 1018H727L520 686L745 0H530Z" />
<glyph unicode="l" glyph-name="l" horiz-adv-x="368" d="M88 0V1366H281V0H88Z" />
<glyph unicode="m" glyph-name="m" horiz-adv-x="1206" d="M928 0V745Q928 766 927 786T919 824T896 853T854 864Q807 864 766 831T698 762V0H508V745Q508 766 507 786T499 824T476 853T434 864Q387 864 347 831T281 762V0H88V1018H281V887Q332 946 391 988T532
1030Q604 1030 642 991T692 887Q745 944 806 987T950 1030Q1003 1030 1036 1010T1087 957T1112 882T1118 795V0H928Z" />
<glyph unicode="n" glyph-name="n" horiz-adv-x="788" d="M508 0V745Q508 766 507 786T499 824T476 853T434 864Q387 864 347 831T281 762V0H88V1018H281V887Q332 946 391 988T532 1030Q584 1030 616 1010T667 957T692 881T698 795V0H508Z" />
<glyph unicode="o" glyph-name="o" horiz-adv-x="788" d="M706 350Q706 270 695 196T624 61Q577 14 517 -3T392 -20Q327 -20 268 -2T161 61Q101 117 91 194T81 350V666Q81 705 82 743T91 819T115 890T161 954Q208 1001 268 1019T392 1038Q458 1038 517 1020T624
954Q654 926 670 891T694 819T704 744T706 666V350ZM515 678Q515 711 511 744T495 804T458 847T392 864Q351 864 328 847T292 803T276 744T271 678V340Q271 307 275 275T292 215T327 171T392 154Q433 154 457 170T494 213T511 273T515 340V678Z" />
<glyph unicode="p" glyph-name="p" horiz-adv-x="792" d="M711 387Q711 332 707 263T683 132T622 28T504 -14Q436 -14 382 20T281 100V-348H88V1018H281V915Q328 963 382 996T504 1030Q580 1030 621 988T683 885T707 755T711 631V387ZM518 659Q518 690 517 726T507
792T477 843T412 864Q375 864 342 849T281 813V205Q311 182 343 168T414 154Q455 154 476 175T507 227T517 294T518 358V659Z" />
<glyph unicode="q" glyph-name="q" horiz-adv-x="792" d="M511 -348V100Q464 55 409 21T286 -14Q208 -14 167 28T107 131T84 262T81 387V631Q81 686 84 754T106 884T167 988T286 1030Q353 1030 408 997T511 915V1018H702V-348H511ZM511 813Q482 836 449 850T378
864Q337 864 315 843T283 790T273 722T271 657V360Q271 332 272 296T284 229T315 176T378 154Q417 154 448 168T511 205V813Z" />
<glyph unicode="r" glyph-name="r" horiz-adv-x="550" d="M522 811Q500 821 479 825T432 829Q379 829 349 811T304 762T285 692T281 612V0H88V1018H281V842Q317 934 367 982T522 1030V811V811Z" />
<glyph unicode="s" glyph-name="s" horiz-adv-x="741" d="M702 281Q702 139 614 60T388 -20Q316 -20 261 0T164 57T91 146T40 264L218 328Q228 297 241 265T274 209T321 169T388 154Q433 154 465 181T497 256Q497 301 464 334T382 395T277 453T171 523T89 618T56
754Q56 817 79 869T143 959T237 1017T353 1038Q482 1038 560 974T683 793L509 717Q499 743 486 770T454 818T410 852T351 864Q310 864 281 841T251 774Q251 743 269 720T314 676T370 640T423 612Q476 584 532 550T630 473Q669 432 685 383T702 281Z" />
<glyph unicode="t" glyph-name="t" horiz-adv-x="559" d="M550 0Q518 -6 487 -10T423 -14Q364 -14 310 0T215 61Q176 106 172 167T167 285V846H22V1018H167V1296H360V1018H534V846H360V305Q360 240 383 200T479 160Q501 160 515 163T550 172V0V0Z" />
<glyph unicode="u" glyph-name="u" horiz-adv-x="788" d="M508 0V131Q459 72 398 29T256 -14Q203 -14 170 6T119 59T94 135T88 221V1018H281V272Q281 252 282 232T290 194T311 165T352 154Q399 154 440 186T508 256V1018H698V0H508Z" />
<glyph unicode="v" glyph-name="v" horiz-adv-x="718" d="M471 0H270L20 1018H223L368 371L497 1018H698L471 0Z" />
<glyph unicode="w" glyph-name="w" horiz-adv-x="1105" d="M866 0H683L552 625L425 0H245L26 1018H221L343 383L468 1018H642L774 383L886 1018H1079L866 0Z" />
<glyph unicode="x" glyph-name="x" horiz-adv-x="753" d="M520 0L374 360L231 0H26L264 530L42 1018H249L376 705L495 1018H698L487 530L726 0H520Z" />
<glyph unicode="y" glyph-name="y" horiz-adv-x="724" d="M483 43Q471 -12 457 -70T419 -181T357 -275T260 -338Q208 -356 156 -358T51 -362V-166Q59 -166 66 -167T81 -168Q159 -168 208 -124T258 0Q258 23 253 44T243 88L20 1018H221L370 322L507 1018H704L483 43Z" />
<glyph unicode="z" glyph-name="z" horiz-adv-x="698" d="M47 0V190L432 834H80V1018H651V825L266 184H651V0H47Z" />
<glyph unicode="{" glyph-name="braceleft" horiz-adv-x="1024" d="M778 -387Q761 -387 746 -388T714 -389Q630 -389 571 -375T473 -327T416 -236T397 -90V242Q397 311 376 360T280 428V580Q350 596 373 642T397 754V1102Q397 1257 468 1321T694 1386Q716 1386
735 1386T778 1384V1225Q724 1225 687 1221T626 1201T591 1151T579 1059V741Q579 694 575 660T559 597T522 546T456 498Q534 451 556 395T579 250V-57Q579 -117 590 -151T625 -202T686 -223T778 -227V-387V-387Z" />
<glyph unicode="|" glyph-name="bar" horiz-adv-x="1024" d="M419 -512V1536H603V-512H419Z" />
<glyph unicode="}" glyph-name="braceright" horiz-adv-x="1024" d="M772 418Q702 401 680 355T657 244V-104Q657 -262 585 -325T358 -389Q335 -389 316 -389T274 -387V-227Q327 -227 365 -223T426 -203T461 -154T473 -61V256Q473 291 478 324T493 391Q510 434
534 455T598 500Q520 545 497 601T473 745V1055Q473 1094 468 1138T421 1204Q393 1221 350 1223T274 1225V1384Q290 1384 306 1385T340 1386Q421 1386 481 1372T581 1324T638 1232T657 1087V756Q657 686 676 637T772 569V418V418Z" />
<glyph unicode="~" glyph-name="asciitilde" horiz-adv-x="1366" d="M1177 1438Q1153 1389 1124 1346T1060 1269T978 1216T870 1196Q817 1196 765 1215T660 1257T559 1299T462 1319Q430 1319 406 1307T361 1275T325 1230T294 1180L188 1247Q213 1294 237 1339T295
1419T372 1475T477 1497Q534 1497 587 1478T693 1436T794 1394T893 1374Q927 1374 953 1384T998 1411T1034 1451T1069 1501L1177 1438V1438Z" />
</font>
</defs>
</svg>
